<svg width="633" height="177" viewBox="0 0 633 177" fill="none" xmlns="http://www.w3.org/2000/svg">
<rect width="633" height="177" rx="5" fill="#4333FF"/>
<path d="M119.157 125.152C113.269 125.152 107.509 124.469 101.877 123.104C96.3298 121.739 91.8498 120.032 88.4365 117.984L95.7325 101.344C98.9752 103.307 102.773 104.885 107.125 106.08C111.477 107.189 115.743 107.744 119.924 107.744C124.021 107.744 126.837 107.317 128.373 106.464C129.994 105.611 130.805 104.459 130.805 103.008C130.805 101.643 130.037 100.661 128.501 100.064C127.05 99.3813 125.087 98.8693 122.613 98.528C120.223 98.1867 117.578 97.8027 114.677 97.376C111.775 96.9493 108.831 96.3947 105.845 95.712C102.943 94.944 100.255 93.8347 97.7805 92.384C95.3912 90.848 93.4712 88.8 92.0205 86.24C90.5698 83.68 89.8445 80.4373 89.8445 76.512C89.8445 72.0747 91.1245 68.1493 93.6845 64.736C96.3298 61.2373 100.17 58.5067 105.205 56.544C110.239 54.496 116.383 53.472 123.637 53.472C128.501 53.472 133.407 53.984 138.357 55.008C143.391 55.9467 147.615 57.3973 151.029 59.36L143.733 75.872C140.319 73.9093 136.906 72.5867 133.493 71.904C130.079 71.136 126.837 70.752 123.764 70.752C119.669 70.752 116.767 71.2213 115.061 72.16C113.439 73.0987 112.629 74.2507 112.629 75.616C112.629 76.9813 113.354 78.048 114.805 78.816C116.255 79.4987 118.175 80.0533 120.565 80.48C123.039 80.8213 125.727 81.2053 128.629 81.632C131.53 81.9733 134.431 82.528 137.333 83.296C140.319 84.064 143.007 85.216 145.397 86.752C147.871 88.2027 149.834 90.208 151.285 92.768C152.735 95.2427 153.461 98.4427 153.461 102.368C153.461 106.635 152.138 110.475 149.493 113.888C146.933 117.301 143.093 120.032 137.973 122.08C132.938 124.128 126.666 125.152 119.157 125.152ZM202.597 125.152C193.722 125.152 186.81 122.976 181.861 118.624C176.911 114.187 174.437 107.531 174.437 98.656V39.136H198.757V98.4C198.757 100.875 199.439 102.837 200.805 104.288C202.17 105.653 203.919 106.336 206.053 106.336C208.954 106.336 211.429 105.611 213.477 104.16L219.493 121.184C217.445 122.549 214.927 123.531 211.941 124.128C208.954 124.811 205.839 125.152 202.597 125.152ZM164.325 75.36V57.184H214.629V75.36H164.325ZM236.55 124V54.624H260.87V124H236.55ZM248.71 46.944C244.273 46.944 240.689 45.7067 237.958 43.232C235.228 40.7573 233.862 37.6853 233.862 34.016C233.862 30.3467 235.228 27.2747 237.958 24.8C240.689 22.3253 244.273 21.088 248.71 21.088C253.148 21.088 256.732 22.2827 259.462 24.672C262.193 26.976 263.558 29.9627 263.558 33.632C263.558 37.472 262.193 40.672 259.462 43.232C256.817 45.7067 253.233 46.944 248.71 46.944Z" fill="white"/>
<path d="M451.621 124V111.072L449.957 107.872V84.064C449.957 80.224 448.762 77.28 446.373 75.232C444.069 73.0987 440.357 72.032 435.237 72.032C431.909 72.032 428.538 72.5867 425.125 73.696C421.712 74.72 418.81 76.1707 416.421 78.048L408.229 61.536C412.154 58.976 416.848 57.0133 422.309 55.648C427.856 54.1973 433.36 53.472 438.821 53.472C450.085 53.472 458.789 56.0747 464.933 61.28C471.162 66.4 474.277 74.464 474.277 85.472V124H451.621ZM431.141 125.152C425.594 125.152 420.901 124.213 417.061 122.336C413.221 120.459 410.277 117.899 408.229 114.656C406.266 111.413 405.285 107.787 405.285 103.776C405.285 99.5093 406.352 95.84 408.485 92.768C410.704 89.6107 414.074 87.2213 418.597 85.6C423.12 83.8933 428.965 83.04 436.133 83.04H452.517V95.712H439.461C435.536 95.712 432.762 96.352 431.141 97.632C429.605 98.912 428.837 100.619 428.837 102.752C428.837 104.885 429.648 106.592 431.269 107.872C432.89 109.152 435.109 109.792 437.925 109.792C440.57 109.792 442.96 109.152 445.093 107.872C447.312 106.507 448.933 104.459 449.957 101.728L453.285 110.688C452.005 115.467 449.488 119.093 445.733 121.568C442.064 123.957 437.2 125.152 431.141 125.152ZM528.284 125.152C519.409 125.152 512.497 122.976 507.548 118.624C502.599 114.187 500.124 107.531 500.124 98.656V39.136H524.444V98.4C524.444 100.875 525.127 102.837 526.492 104.288C527.857 105.653 529.607 106.336 531.74 106.336C534.641 106.336 537.116 105.611 539.164 104.16L545.18 121.184C543.132 122.549 540.615 123.531 537.628 124.128C534.641 124.811 531.527 125.152 528.284 125.152ZM490.012 75.36V57.184H540.316V75.36H490.012ZM596.59 125.152C588.398 125.152 581.23 123.616 575.086 120.544C569.027 117.387 564.291 113.12 560.878 107.744C557.55 102.283 555.886 96.096 555.886 89.184C555.886 82.272 557.507 76.128 560.75 70.752C564.078 65.2907 568.643 61.0667 574.446 58.08C580.249 55.008 586.777 53.472 594.03 53.472C600.857 53.472 607.086 54.88 612.718 57.696C618.35 60.4267 622.83 64.48 626.158 69.856C629.486 75.232 631.15 81.76 631.15 89.44C631.15 90.2933 631.107 91.2747 631.022 92.384C630.937 93.4933 630.851 94.5173 630.766 95.456H575.854V82.656H617.838L608.622 86.24C608.707 83.0827 608.11 80.352 606.83 78.048C605.635 75.744 603.929 73.952 601.71 72.672C599.577 71.392 597.059 70.752 594.158 70.752C591.257 70.752 588.697 71.392 586.478 72.672C584.345 73.952 582.681 75.7867 581.486 78.176C580.291 80.48 579.694 83.2107 579.694 86.368V90.08C579.694 93.4933 580.377 96.4373 581.742 98.912C583.193 101.387 585.241 103.307 587.886 104.672C590.531 105.952 593.689 106.592 597.358 106.592C600.771 106.592 603.673 106.123 606.062 105.184C608.537 104.16 610.969 102.624 613.358 100.576L626.158 113.888C622.83 117.557 618.734 120.373 613.87 122.336C609.006 124.213 603.246 125.152 596.59 125.152Z" fill="#FF4000"/>
<path d="M283.898 124V34.4H304.762L341.882 95.328H330.874L366.97 34.4H387.834L388.09 124H364.794L364.538 69.856H368.506L341.498 115.168H330.234L302.458 69.856H307.322V124H283.898Z" fill="#FF4000"/>
<path d="M8.92783 166L2.15183 150.6H4.52783L10.7538 164.812H9.38983L15.6598 150.6H17.8598L11.1058 166H8.92783ZM24.0688 166.132C22.8955 166.132 21.8541 165.875 20.9448 165.362C20.0355 164.849 19.3168 164.145 18.7888 163.25C18.2608 162.341 17.9968 161.314 17.9968 160.17C17.9968 159.011 18.2608 157.985 18.7888 157.09C19.3168 156.195 20.0355 155.499 20.9448 155C21.8541 154.487 22.8955 154.23 24.0688 154.23C25.2275 154.23 26.2615 154.487 27.1708 155C28.0948 155.499 28.8135 156.195 29.3268 157.09C29.8548 157.97 30.1188 158.997 30.1188 160.17C30.1188 161.329 29.8548 162.355 29.3268 163.25C28.8135 164.145 28.0948 164.849 27.1708 165.362C26.2615 165.875 25.2275 166.132 24.0688 166.132ZM24.0688 164.284C24.8168 164.284 25.4841 164.115 26.0708 163.778C26.6721 163.441 27.1415 162.964 27.4788 162.348C27.8161 161.717 27.9848 160.991 27.9848 160.17C27.9848 159.334 27.8161 158.615 27.4788 158.014C27.1415 157.398 26.6721 156.921 26.0708 156.584C25.4841 156.247 24.8168 156.078 24.0688 156.078C23.3208 156.078 22.6535 156.247 22.0668 156.584C21.4801 156.921 21.0108 157.398 20.6588 158.014C20.3068 158.615 20.1308 159.334 20.1308 160.17C20.1308 160.991 20.3068 161.717 20.6588 162.348C21.0108 162.964 21.4801 163.441 22.0668 163.778C22.6535 164.115 23.3208 164.284 24.0688 164.284ZM37.4837 166.132C36.3103 166.132 35.401 165.817 34.7557 165.186C34.1103 164.555 33.7877 163.653 33.7877 162.48V151.788H35.8997V162.392C35.8997 163.023 36.0537 163.507 36.3617 163.844C36.6843 164.181 37.139 164.35 37.7257 164.35C38.3857 164.35 38.9357 164.167 39.3757 163.8L40.0357 165.318C39.713 165.597 39.3243 165.802 38.8697 165.934C38.4297 166.066 37.9677 166.132 37.4837 166.132ZM31.8077 156.078V154.34H39.2437V156.078H31.8077ZM43.029 166V154.34H45.053V157.508L44.855 156.716C45.1777 155.909 45.7204 155.293 46.483 154.868C47.2457 154.443 48.1844 154.23 49.299 154.23V156.276C49.211 156.261 49.123 156.254 49.035 156.254C48.9617 156.254 48.8884 156.254 48.815 156.254C47.6857 156.254 46.791 156.591 46.131 157.266C45.471 157.941 45.141 158.916 45.141 160.192V166H43.029ZM57.4267 166.132C56.18 166.132 55.08 165.875 54.1267 165.362C53.188 164.849 52.4547 164.145 51.9267 163.25C51.4133 162.355 51.1567 161.329 51.1567 160.17C51.1567 159.011 51.406 157.985 51.9047 157.09C52.418 156.195 53.1147 155.499 53.9947 155C54.8893 154.487 55.894 154.23 57.0087 154.23C58.138 154.23 59.1353 154.479 60.0007 154.978C60.866 155.477 61.5407 156.181 62.0247 157.09C62.5233 157.985 62.7727 159.033 62.7727 160.236C62.7727 160.324 62.7653 160.427 62.7507 160.544C62.7507 160.661 62.7433 160.771 62.7287 160.874H52.8067V159.356H61.6287L60.7707 159.884C60.7853 159.136 60.6313 158.469 60.3087 157.882C59.986 157.295 59.5387 156.841 58.9667 156.518C58.4093 156.181 57.7567 156.012 57.0087 156.012C56.2753 156.012 55.6227 156.181 55.0507 156.518C54.4787 156.841 54.0313 157.303 53.7087 157.904C53.386 158.491 53.2247 159.165 53.2247 159.928V160.28C53.2247 161.057 53.4007 161.754 53.7527 162.37C54.1193 162.971 54.6253 163.441 55.2707 163.778C55.916 164.115 56.6567 164.284 57.4927 164.284C58.182 164.284 58.8053 164.167 59.3627 163.932C59.9347 163.697 60.4333 163.345 60.8587 162.876L62.0247 164.24C61.4967 164.856 60.8367 165.325 60.0447 165.648C59.2673 165.971 58.3947 166.132 57.4267 166.132ZM77.5756 166.132C76.3876 166.132 75.3242 165.875 74.3856 165.362C73.4616 164.849 72.7356 164.145 72.2076 163.25C71.6796 162.355 71.4156 161.329 71.4156 160.17C71.4156 159.011 71.6796 157.985 72.2076 157.09C72.7356 156.195 73.4616 155.499 74.3856 155C75.3242 154.487 76.3876 154.23 77.5756 154.23C78.6316 154.23 79.5702 154.443 80.3916 154.868C81.2276 155.279 81.8729 155.895 82.3276 156.716L80.7216 157.75C80.3402 157.178 79.8709 156.76 79.3136 156.496C78.7709 156.217 78.1842 156.078 77.5536 156.078C76.7909 156.078 76.1089 156.247 75.5076 156.584C74.9062 156.921 74.4296 157.398 74.0776 158.014C73.7256 158.615 73.5496 159.334 73.5496 160.17C73.5496 161.006 73.7256 161.732 74.0776 162.348C74.4296 162.964 74.9062 163.441 75.5076 163.778C76.1089 164.115 76.7909 164.284 77.5536 164.284C78.1842 164.284 78.7709 164.152 79.3136 163.888C79.8709 163.609 80.3402 163.184 80.7216 162.612L82.3276 163.624C81.8729 164.431 81.2276 165.054 80.3916 165.494C79.5702 165.919 78.6316 166.132 77.5756 166.132ZM90.324 166.132C89.1507 166.132 88.1094 165.875 87.2 165.362C86.2907 164.849 85.572 164.145 85.044 163.25C84.516 162.341 84.252 161.314 84.252 160.17C84.252 159.011 84.516 157.985 85.044 157.09C85.572 156.195 86.2907 155.499 87.2 155C88.1094 154.487 89.1507 154.23 90.324 154.23C91.4827 154.23 92.5167 154.487 93.426 155C94.35 155.499 95.0687 156.195 95.582 157.09C96.11 157.97 96.374 158.997 96.374 160.17C96.374 161.329 96.11 162.355 95.582 163.25C95.0687 164.145 94.35 164.849 93.426 165.362C92.5167 165.875 91.4827 166.132 90.324 166.132ZM90.324 164.284C91.072 164.284 91.7394 164.115 92.326 163.778C92.9274 163.441 93.3967 162.964 93.734 162.348C94.0714 161.717 94.24 160.991 94.24 160.17C94.24 159.334 94.0714 158.615 93.734 158.014C93.3967 157.398 92.9274 156.921 92.326 156.584C91.7394 156.247 91.072 156.078 90.324 156.078C89.576 156.078 88.9087 156.247 88.322 156.584C87.7354 156.921 87.266 157.398 86.914 158.014C86.562 158.615 86.386 159.334 86.386 160.17C86.386 160.991 86.562 161.717 86.914 162.348C87.266 162.964 87.7354 163.441 88.322 163.778C88.9087 164.115 89.576 164.284 90.324 164.284ZM114.321 154.23C115.26 154.23 116.088 154.413 116.807 154.78C117.526 155.147 118.083 155.704 118.479 156.452C118.89 157.2 119.095 158.146 119.095 159.29V166H116.983V159.532C116.983 158.403 116.719 157.552 116.191 156.98C115.663 156.408 114.922 156.122 113.969 156.122C113.265 156.122 112.649 156.269 112.121 156.562C111.593 156.855 111.182 157.288 110.889 157.86C110.61 158.432 110.471 159.143 110.471 159.994V166H108.359V159.532C108.359 158.403 108.095 157.552 107.567 156.98C107.054 156.408 106.313 156.122 105.345 156.122C104.656 156.122 104.047 156.269 103.519 156.562C102.991 156.855 102.58 157.288 102.287 157.86C101.994 158.432 101.847 159.143 101.847 159.994V166H99.7349V154.34H101.759V157.442L101.429 156.65C101.796 155.887 102.36 155.293 103.123 154.868C103.886 154.443 104.773 154.23 105.785 154.23C106.9 154.23 107.86 154.509 108.667 155.066C109.474 155.609 110.002 156.437 110.251 157.552L109.393 157.2C109.745 156.305 110.361 155.587 111.241 155.044C112.121 154.501 113.148 154.23 114.321 154.23ZM129.603 166.132C128.635 166.132 127.748 165.912 126.941 165.472C126.149 165.017 125.511 164.35 125.027 163.47C124.558 162.59 124.323 161.49 124.323 160.17C124.323 158.85 124.55 157.75 125.005 156.87C125.474 155.99 126.105 155.33 126.897 154.89C127.704 154.45 128.606 154.23 129.603 154.23C130.747 154.23 131.759 154.479 132.639 154.978C133.519 155.477 134.216 156.173 134.729 157.068C135.242 157.948 135.499 158.982 135.499 160.17C135.499 161.358 135.242 162.399 134.729 163.294C134.216 164.189 133.519 164.885 132.639 165.384C131.759 165.883 130.747 166.132 129.603 166.132ZM123.421 170.268V154.34H125.445V157.486L125.313 160.192L125.533 162.898V170.268H123.421ZM129.427 164.284C130.175 164.284 130.842 164.115 131.429 163.778C132.03 163.441 132.5 162.964 132.837 162.348C133.189 161.717 133.365 160.991 133.365 160.17C133.365 159.334 133.189 158.615 132.837 158.014C132.5 157.398 132.03 156.921 131.429 156.584C130.842 156.247 130.175 156.078 129.427 156.078C128.694 156.078 128.026 156.247 127.425 156.584C126.838 156.921 126.369 157.398 126.017 158.014C125.68 158.615 125.511 159.334 125.511 160.17C125.511 160.991 125.68 161.717 126.017 162.348C126.369 162.964 126.838 163.441 127.425 163.778C128.026 164.115 128.694 164.284 129.427 164.284ZM145.988 166V163.536L145.878 163.074V158.872C145.878 157.977 145.614 157.288 145.086 156.804C144.572 156.305 143.795 156.056 142.754 156.056C142.064 156.056 141.39 156.173 140.73 156.408C140.07 156.628 139.512 156.929 139.058 157.31L138.178 155.726C138.779 155.242 139.498 154.875 140.334 154.626C141.184 154.362 142.072 154.23 142.996 154.23C144.594 154.23 145.826 154.619 146.692 155.396C147.557 156.173 147.99 157.361 147.99 158.96V166H145.988ZM142.16 166.132C141.294 166.132 140.532 165.985 139.872 165.692C139.226 165.399 138.728 164.995 138.376 164.482C138.024 163.954 137.848 163.36 137.848 162.7C137.848 162.069 137.994 161.497 138.288 160.984C138.596 160.471 139.087 160.06 139.762 159.752C140.451 159.444 141.375 159.29 142.534 159.29H146.23V160.808H142.622C141.566 160.808 140.854 160.984 140.488 161.336C140.121 161.688 139.938 162.113 139.938 162.612C139.938 163.184 140.165 163.646 140.62 163.998C141.074 164.335 141.705 164.504 142.512 164.504C143.304 164.504 143.993 164.328 144.58 163.976C145.181 163.624 145.614 163.111 145.878 162.436L146.296 163.888C146.017 164.577 145.526 165.127 144.822 165.538C144.118 165.934 143.23 166.132 142.16 166.132ZM157.442 170.4C156.371 170.4 155.33 170.246 154.318 169.938C153.321 169.645 152.507 169.219 151.876 168.662L152.888 167.034C153.431 167.503 154.098 167.87 154.89 168.134C155.682 168.413 156.511 168.552 157.376 168.552C158.755 168.552 159.767 168.229 160.412 167.584C161.057 166.939 161.38 165.956 161.38 164.636V162.172L161.6 159.862L161.49 157.53V154.34H163.492V164.416C163.492 166.469 162.979 167.98 161.952 168.948C160.925 169.916 159.422 170.4 157.442 170.4ZM157.178 165.516C156.049 165.516 155.037 165.281 154.142 164.812C153.262 164.328 152.558 163.661 152.03 162.81C151.517 161.959 151.26 160.977 151.26 159.862C151.26 158.733 151.517 157.75 152.03 156.914C152.558 156.063 153.262 155.403 154.142 154.934C155.037 154.465 156.049 154.23 157.178 154.23C158.175 154.23 159.085 154.435 159.906 154.846C160.727 155.242 161.38 155.858 161.864 156.694C162.363 157.53 162.612 158.586 162.612 159.862C162.612 161.123 162.363 162.172 161.864 163.008C161.38 163.844 160.727 164.475 159.906 164.9C159.085 165.311 158.175 165.516 157.178 165.516ZM157.42 163.668C158.197 163.668 158.887 163.507 159.488 163.184C160.089 162.861 160.559 162.414 160.896 161.842C161.248 161.27 161.424 160.61 161.424 159.862C161.424 159.114 161.248 158.454 160.896 157.882C160.559 157.31 160.089 156.87 159.488 156.562C158.887 156.239 158.197 156.078 157.42 156.078C156.643 156.078 155.946 156.239 155.33 156.562C154.729 156.87 154.252 157.31 153.9 157.882C153.563 158.454 153.394 159.114 153.394 159.862C153.394 160.61 153.563 161.27 153.9 161.842C154.252 162.414 154.729 162.861 155.33 163.184C155.946 163.507 156.643 163.668 157.42 163.668ZM174.194 154.23C175.147 154.23 175.983 154.413 176.702 154.78C177.435 155.147 178.007 155.704 178.418 156.452C178.828 157.2 179.034 158.146 179.034 159.29V166H176.922V159.532C176.922 158.403 176.643 157.552 176.086 156.98C175.543 156.408 174.773 156.122 173.776 156.122C173.028 156.122 172.375 156.269 171.818 156.562C171.26 156.855 170.828 157.288 170.52 157.86C170.226 158.432 170.08 159.143 170.08 159.994V166H167.968V154.34H169.992V157.486L169.662 156.65C170.043 155.887 170.63 155.293 171.422 154.868C172.214 154.443 173.138 154.23 174.194 154.23ZM188.376 166.132C187.203 166.132 186.161 165.875 185.252 165.362C184.343 164.849 183.624 164.145 183.096 163.25C182.568 162.341 182.304 161.314 182.304 160.17C182.304 159.011 182.568 157.985 183.096 157.09C183.624 156.195 184.343 155.499 185.252 155C186.161 154.487 187.203 154.23 188.376 154.23C189.535 154.23 190.569 154.487 191.478 155C192.402 155.499 193.121 156.195 193.634 157.09C194.162 157.97 194.426 158.997 194.426 160.17C194.426 161.329 194.162 162.355 193.634 163.25C193.121 164.145 192.402 164.849 191.478 165.362C190.569 165.875 189.535 166.132 188.376 166.132ZM188.376 164.284C189.124 164.284 189.791 164.115 190.378 163.778C190.979 163.441 191.449 162.964 191.786 162.348C192.123 161.717 192.292 160.991 192.292 160.17C192.292 159.334 192.123 158.615 191.786 158.014C191.449 157.398 190.979 156.921 190.378 156.584C189.791 156.247 189.124 156.078 188.376 156.078C187.628 156.078 186.961 156.247 186.374 156.584C185.787 156.921 185.318 157.398 184.966 158.014C184.614 158.615 184.438 159.334 184.438 160.17C184.438 160.991 184.614 161.717 184.966 162.348C185.318 162.964 185.787 163.441 186.374 163.778C186.961 164.115 187.628 164.284 188.376 164.284ZM204.013 154.23C204.966 154.23 205.802 154.413 206.521 154.78C207.254 155.147 207.826 155.704 208.237 156.452C208.648 157.2 208.853 158.146 208.853 159.29V166H206.741V159.532C206.741 158.403 206.462 157.552 205.905 156.98C205.362 156.408 204.592 156.122 203.595 156.122C202.847 156.122 202.194 156.269 201.637 156.562C201.08 156.855 200.647 157.288 200.339 157.86C200.046 158.432 199.899 159.143 199.899 159.994V166H197.787V154.34H199.811V157.486L199.481 156.65C199.862 155.887 200.449 155.293 201.241 154.868C202.033 154.443 202.957 154.23 204.013 154.23ZM219.858 166V153.306C219.858 152.162 220.188 151.253 220.848 150.578C221.522 149.889 222.476 149.544 223.708 149.544C224.162 149.544 224.595 149.603 225.006 149.72C225.431 149.823 225.79 149.991 226.084 150.226L225.446 151.832C225.226 151.656 224.976 151.524 224.698 151.436C224.419 151.333 224.126 151.282 223.818 151.282C223.202 151.282 222.732 151.458 222.41 151.81C222.087 152.147 221.926 152.653 221.926 153.328V154.89L221.97 155.858V166H219.858ZM217.878 156.078V154.34H225.314V156.078H217.878ZM227.316 166V154.34H229.428V166H227.316ZM228.372 152.096C227.961 152.096 227.616 151.964 227.338 151.7C227.074 151.436 226.942 151.113 226.942 150.732C226.942 150.336 227.074 150.006 227.338 149.742C227.616 149.478 227.961 149.346 228.372 149.346C228.782 149.346 229.12 149.478 229.384 149.742C229.662 149.991 229.802 150.307 229.802 150.688C229.802 151.084 229.67 151.421 229.406 151.7C229.142 151.964 228.797 152.096 228.372 152.096ZM241.128 166V163.536L241.018 163.074V158.872C241.018 157.977 240.754 157.288 240.226 156.804C239.713 156.305 238.936 156.056 237.894 156.056C237.205 156.056 236.53 156.173 235.87 156.408C235.21 156.628 234.653 156.929 234.198 157.31L233.318 155.726C233.92 155.242 234.638 154.875 235.474 154.626C236.325 154.362 237.212 154.23 238.136 154.23C239.735 154.23 240.967 154.619 241.832 155.396C242.698 156.173 243.13 157.361 243.13 158.96V166H241.128ZM237.3 166.132C236.435 166.132 235.672 165.985 235.012 165.692C234.367 165.399 233.868 164.995 233.516 164.482C233.164 163.954 232.988 163.36 232.988 162.7C232.988 162.069 233.135 161.497 233.428 160.984C233.736 160.471 234.228 160.06 234.902 159.752C235.592 159.444 236.516 159.29 237.674 159.29H241.37V160.808H237.762C236.706 160.808 235.995 160.984 235.628 161.336C235.262 161.688 235.078 162.113 235.078 162.612C235.078 163.184 235.306 163.646 235.76 163.998C236.215 164.335 236.846 164.504 237.652 164.504C238.444 164.504 239.134 164.328 239.72 163.976C240.322 163.624 240.754 163.111 241.018 162.436L241.436 163.888C241.158 164.577 240.666 165.127 239.962 165.538C239.258 165.934 238.371 166.132 237.3 166.132ZM253.661 166.132C252.663 166.132 251.761 165.912 250.955 165.472C250.163 165.017 249.532 164.35 249.063 163.47C248.608 162.59 248.381 161.49 248.381 160.17C248.381 158.85 248.615 157.75 249.085 156.87C249.569 155.99 250.207 155.33 250.999 154.89C251.805 154.45 252.693 154.23 253.661 154.23C254.805 154.23 255.817 154.479 256.697 154.978C257.577 155.477 258.273 156.173 258.787 157.068C259.3 157.948 259.557 158.982 259.557 160.17C259.557 161.358 259.3 162.399 258.787 163.294C258.273 164.189 257.577 164.885 256.697 165.384C255.817 165.883 254.805 166.132 253.661 166.132ZM247.479 166V149.676H249.591V157.442L249.371 160.148L249.503 162.854V166H247.479ZM253.485 164.284C254.233 164.284 254.9 164.115 255.487 163.778C256.088 163.441 256.557 162.964 256.895 162.348C257.247 161.717 257.423 160.991 257.423 160.17C257.423 159.334 257.247 158.615 256.895 158.014C256.557 157.398 256.088 156.921 255.487 156.584C254.9 156.247 254.233 156.078 253.485 156.078C252.751 156.078 252.084 156.247 251.483 156.584C250.896 156.921 250.427 157.398 250.075 158.014C249.737 158.615 249.569 159.334 249.569 160.17C249.569 160.991 249.737 161.717 250.075 162.348C250.427 162.964 250.896 163.441 251.483 163.778C252.084 164.115 252.751 164.284 253.485 164.284ZM262.915 166V149.676H265.027V166H262.915ZM274.691 166.132C273.445 166.132 272.345 165.875 271.391 165.362C270.453 164.849 269.719 164.145 269.191 163.25C268.678 162.355 268.421 161.329 268.421 160.17C268.421 159.011 268.671 157.985 269.169 157.09C269.683 156.195 270.379 155.499 271.259 155C272.154 154.487 273.159 154.23 274.273 154.23C275.403 154.23 276.4 154.479 277.265 154.978C278.131 155.477 278.805 156.181 279.289 157.09C279.788 157.985 280.037 159.033 280.037 160.236C280.037 160.324 280.03 160.427 280.015 160.544C280.015 160.661 280.008 160.771 279.993 160.874H270.071V159.356H278.893L278.035 159.884C278.05 159.136 277.896 158.469 277.573 157.882C277.251 157.295 276.803 156.841 276.231 156.518C275.674 156.181 275.021 156.012 274.273 156.012C273.54 156.012 272.887 156.181 272.315 156.518C271.743 156.841 271.296 157.303 270.973 157.904C270.651 158.491 270.489 159.165 270.489 159.928V160.28C270.489 161.057 270.665 161.754 271.017 162.37C271.384 162.971 271.89 163.441 272.535 163.778C273.181 164.115 273.921 164.284 274.757 164.284C275.447 164.284 276.07 164.167 276.627 163.932C277.199 163.697 277.698 163.345 278.123 162.876L279.289 164.24C278.761 164.856 278.101 165.325 277.309 165.648C276.532 165.971 275.659 166.132 274.691 166.132ZM295.94 166.132C294.972 166.132 294.085 165.912 293.278 165.472C292.486 165.017 291.848 164.35 291.364 163.47C290.895 162.59 290.66 161.49 290.66 160.17C290.66 158.85 290.887 157.75 291.342 156.87C291.811 155.99 292.442 155.33 293.234 154.89C294.041 154.45 294.943 154.23 295.94 154.23C297.084 154.23 298.096 154.479 298.976 154.978C299.856 155.477 300.553 156.173 301.066 157.068C301.579 157.948 301.836 158.982 301.836 160.17C301.836 161.358 301.579 162.399 301.066 163.294C300.553 164.189 299.856 164.885 298.976 165.384C298.096 165.883 297.084 166.132 295.94 166.132ZM289.758 170.268V154.34H291.782V157.486L291.65 160.192L291.87 162.898V170.268H289.758ZM295.764 164.284C296.512 164.284 297.179 164.115 297.766 163.778C298.367 163.441 298.837 162.964 299.174 162.348C299.526 161.717 299.702 160.991 299.702 160.17C299.702 159.334 299.526 158.615 299.174 158.014C298.837 157.398 298.367 156.921 297.766 156.584C297.179 156.247 296.512 156.078 295.764 156.078C295.031 156.078 294.363 156.247 293.762 156.584C293.175 156.921 292.706 157.398 292.354 158.014C292.017 158.615 291.848 159.334 291.848 160.17C291.848 160.991 292.017 161.717 292.354 162.348C292.706 162.964 293.175 163.441 293.762 163.778C294.363 164.115 295.031 164.284 295.764 164.284ZM310.188 166.132C309.015 166.132 307.974 165.875 307.064 165.362C306.155 164.849 305.436 164.145 304.908 163.25C304.38 162.341 304.116 161.314 304.116 160.17C304.116 159.011 304.38 157.985 304.908 157.09C305.436 156.195 306.155 155.499 307.064 155C307.974 154.487 309.015 154.23 310.188 154.23C311.347 154.23 312.381 154.487 313.29 155C314.214 155.499 314.933 156.195 315.446 157.09C315.974 157.97 316.238 158.997 316.238 160.17C316.238 161.329 315.974 162.355 315.446 163.25C314.933 164.145 314.214 164.849 313.29 165.362C312.381 165.875 311.347 166.132 310.188 166.132ZM310.188 164.284C310.936 164.284 311.604 164.115 312.19 163.778C312.792 163.441 313.261 162.964 313.598 162.348C313.936 161.717 314.104 160.991 314.104 160.17C314.104 159.334 313.936 158.615 313.598 158.014C313.261 157.398 312.792 156.921 312.19 156.584C311.604 156.247 310.936 156.078 310.188 156.078C309.44 156.078 308.773 156.247 308.186 156.584C307.6 156.921 307.13 157.398 306.778 158.014C306.426 158.615 306.25 159.334 306.25 160.17C306.25 160.991 306.426 161.717 306.778 162.348C307.13 162.964 307.6 163.441 308.186 163.778C308.773 164.115 309.44 164.284 310.188 164.284ZM324.505 166.132C323.508 166.132 322.628 165.949 321.865 165.582C321.117 165.215 320.53 164.658 320.105 163.91C319.694 163.147 319.489 162.194 319.489 161.05V154.34H321.601V160.808C321.601 161.952 321.872 162.81 322.415 163.382C322.972 163.954 323.75 164.24 324.747 164.24C325.48 164.24 326.118 164.093 326.661 163.8C327.204 163.492 327.622 163.052 327.915 162.48C328.208 161.893 328.355 161.189 328.355 160.368V154.34H330.467V166H328.465V162.854L328.795 163.69C328.414 164.467 327.842 165.069 327.079 165.494C326.316 165.919 325.458 166.132 324.505 166.132ZM334.928 166V154.34H336.952V157.508L336.754 156.716C337.076 155.909 337.619 155.293 338.382 154.868C339.144 154.443 340.083 154.23 341.198 154.23V156.276C341.11 156.261 341.022 156.254 340.934 156.254C340.86 156.254 340.787 156.254 340.714 156.254C339.584 156.254 338.69 156.591 338.03 157.266C337.37 157.941 337.04 158.916 337.04 160.192V166H334.928ZM355.557 166.132C354.428 166.132 353.416 165.883 352.521 165.384C351.641 164.885 350.945 164.189 350.431 163.294C349.918 162.399 349.661 161.358 349.661 160.17C349.661 158.982 349.918 157.948 350.431 157.068C350.945 156.173 351.641 155.477 352.521 154.978C353.416 154.479 354.428 154.23 355.557 154.23C356.54 154.23 357.427 154.45 358.219 154.89C359.011 155.33 359.642 155.99 360.111 156.87C360.595 157.75 360.837 158.85 360.837 160.17C360.837 161.49 360.603 162.59 360.133 163.47C359.679 164.35 359.055 165.017 358.263 165.472C357.471 165.912 356.569 166.132 355.557 166.132ZM355.733 164.284C356.467 164.284 357.127 164.115 357.713 163.778C358.315 163.441 358.784 162.964 359.121 162.348C359.473 161.717 359.649 160.991 359.649 160.17C359.649 159.334 359.473 158.615 359.121 158.014C358.784 157.398 358.315 156.921 357.713 156.584C357.127 156.247 356.467 156.078 355.733 156.078C354.985 156.078 354.318 156.247 353.731 156.584C353.145 156.921 352.675 157.398 352.323 158.014C351.971 158.615 351.795 159.334 351.795 160.17C351.795 160.991 351.971 161.717 352.323 162.348C352.675 162.964 353.145 163.441 353.731 163.778C354.318 164.115 354.985 164.284 355.733 164.284ZM359.715 166V162.854L359.847 160.148L359.627 157.442V149.676H361.739V166H359.715ZM371.368 166.132C370.121 166.132 369.021 165.875 368.068 165.362C367.129 164.849 366.396 164.145 365.868 163.25C365.354 162.355 365.098 161.329 365.098 160.17C365.098 159.011 365.347 157.985 365.846 157.09C366.359 156.195 367.056 155.499 367.936 155C368.83 154.487 369.835 154.23 370.95 154.23C372.079 154.23 373.076 154.479 373.942 154.978C374.807 155.477 375.482 156.181 375.966 157.09C376.464 157.985 376.714 159.033 376.714 160.236C376.714 160.324 376.706 160.427 376.692 160.544C376.692 160.661 376.684 160.771 376.67 160.874H366.748V159.356H375.57L374.712 159.884C374.726 159.136 374.572 158.469 374.25 157.882C373.927 157.295 373.48 156.841 372.908 156.518C372.35 156.181 371.698 156.012 370.95 156.012C370.216 156.012 369.564 156.181 368.992 156.518C368.42 156.841 367.972 157.303 367.65 157.904C367.327 158.491 367.166 159.165 367.166 159.928V160.28C367.166 161.057 367.342 161.754 367.694 162.37C368.06 162.971 368.566 163.441 369.212 163.778C369.857 164.115 370.598 164.284 371.434 164.284C372.123 164.284 372.746 164.167 373.304 163.932C373.876 163.697 374.374 163.345 374.8 162.876L375.966 164.24C375.438 164.856 374.778 165.325 373.986 165.648C373.208 165.971 372.336 166.132 371.368 166.132ZM383.43 166.132C382.462 166.132 381.538 166 380.658 165.736C379.793 165.472 379.111 165.149 378.612 164.768L379.492 163.096C379.991 163.433 380.607 163.719 381.34 163.954C382.074 164.189 382.822 164.306 383.584 164.306C384.567 164.306 385.271 164.167 385.696 163.888C386.136 163.609 386.356 163.221 386.356 162.722C386.356 162.355 386.224 162.069 385.96 161.864C385.696 161.659 385.344 161.505 384.904 161.402C384.479 161.299 384.002 161.211 383.474 161.138C382.946 161.05 382.418 160.947 381.89 160.83C381.362 160.698 380.878 160.522 380.438 160.302C379.998 160.067 379.646 159.752 379.382 159.356C379.118 158.945 378.986 158.403 378.986 157.728C378.986 157.024 379.184 156.408 379.58 155.88C379.976 155.352 380.534 154.949 381.252 154.67C381.986 154.377 382.851 154.23 383.848 154.23C384.611 154.23 385.381 154.325 386.158 154.516C386.95 154.692 387.596 154.949 388.094 155.286L387.192 156.958C386.664 156.606 386.114 156.364 385.542 156.232C384.97 156.1 384.398 156.034 383.826 156.034C382.902 156.034 382.213 156.188 381.758 156.496C381.304 156.789 381.076 157.171 381.076 157.64C381.076 158.036 381.208 158.344 381.472 158.564C381.751 158.769 382.103 158.931 382.528 159.048C382.968 159.165 383.452 159.268 383.98 159.356C384.508 159.429 385.036 159.532 385.564 159.664C386.092 159.781 386.569 159.95 386.994 160.17C387.434 160.39 387.786 160.698 388.05 161.094C388.329 161.49 388.468 162.018 388.468 162.678C388.468 163.382 388.263 163.991 387.852 164.504C387.442 165.017 386.862 165.421 386.114 165.714C385.366 165.993 384.472 166.132 383.43 166.132ZM403.088 166.132C401.841 166.132 400.741 165.875 399.788 165.362C398.849 164.849 398.116 164.145 397.588 163.25C397.075 162.355 396.818 161.329 396.818 160.17C396.818 159.011 397.067 157.985 397.566 157.09C398.079 156.195 398.776 155.499 399.656 155C400.551 154.487 401.555 154.23 402.67 154.23C403.799 154.23 404.797 154.479 405.662 154.978C406.527 155.477 407.202 156.181 407.686 157.09C408.185 157.985 408.434 159.033 408.434 160.236C408.434 160.324 408.427 160.427 408.412 160.544C408.412 160.661 408.405 160.771 408.39 160.874H398.468V159.356H407.29L406.432 159.884C406.447 159.136 406.293 158.469 405.97 157.882C405.647 157.295 405.2 156.841 404.628 156.518C404.071 156.181 403.418 156.012 402.67 156.012C401.937 156.012 401.284 156.181 400.712 156.518C400.14 156.841 399.693 157.303 399.37 157.904C399.047 158.491 398.886 159.165 398.886 159.928V160.28C398.886 161.057 399.062 161.754 399.414 162.37C399.781 162.971 400.287 163.441 400.932 163.778C401.577 164.115 402.318 164.284 403.154 164.284C403.843 164.284 404.467 164.167 405.024 163.932C405.596 163.697 406.095 163.345 406.52 162.876L407.686 164.24C407.158 164.856 406.498 165.325 405.706 165.648C404.929 165.971 404.056 166.132 403.088 166.132ZM415.151 166.132C414.183 166.132 413.259 166 412.379 165.736C411.513 165.472 410.831 165.149 410.333 164.768L411.213 163.096C411.711 163.433 412.327 163.719 413.061 163.954C413.794 164.189 414.542 164.306 415.305 164.306C416.287 164.306 416.991 164.167 417.417 163.888C417.857 163.609 418.077 163.221 418.077 162.722C418.077 162.355 417.945 162.069 417.681 161.864C417.417 161.659 417.065 161.505 416.625 161.402C416.199 161.299 415.723 161.211 415.195 161.138C414.667 161.05 414.139 160.947 413.611 160.83C413.083 160.698 412.599 160.522 412.159 160.302C411.719 160.067 411.367 159.752 411.103 159.356C410.839 158.945 410.707 158.403 410.707 157.728C410.707 157.024 410.905 156.408 411.301 155.88C411.697 155.352 412.254 154.949 412.973 154.67C413.706 154.377 414.571 154.23 415.569 154.23C416.331 154.23 417.101 154.325 417.879 154.516C418.671 154.692 419.316 154.949 419.815 155.286L418.913 156.958C418.385 156.606 417.835 156.364 417.263 156.232C416.691 156.1 416.119 156.034 415.547 156.034C414.623 156.034 413.933 156.188 413.479 156.496C413.024 156.789 412.797 157.171 412.797 157.64C412.797 158.036 412.929 158.344 413.193 158.564C413.471 158.769 413.823 158.931 414.249 159.048C414.689 159.165 415.173 159.268 415.701 159.356C416.229 159.429 416.757 159.532 417.285 159.664C417.813 159.781 418.289 159.95 418.715 160.17C419.155 160.39 419.507 160.698 419.771 161.094C420.049 161.49 420.189 162.018 420.189 162.678C420.189 163.382 419.983 163.991 419.573 164.504C419.162 165.017 418.583 165.421 417.835 165.714C417.087 165.993 416.192 166.132 415.151 166.132ZM427.272 166.132C426.099 166.132 425.189 165.817 424.544 165.186C423.899 164.555 423.576 163.653 423.576 162.48V151.788H425.688V162.392C425.688 163.023 425.842 163.507 426.15 163.844C426.473 164.181 426.927 164.35 427.514 164.35C428.174 164.35 428.724 164.167 429.164 163.8L429.824 165.318C429.501 165.597 429.113 165.802 428.658 165.934C428.218 166.066 427.756 166.132 427.272 166.132ZM421.596 156.078V154.34H429.032V156.078H421.596ZM432.817 166V154.34H434.929V166H432.817ZM433.873 152.096C433.463 152.096 433.118 151.964 432.839 151.7C432.575 151.436 432.443 151.113 432.443 150.732C432.443 150.336 432.575 150.006 432.839 149.742C433.118 149.478 433.463 149.346 433.873 149.346C434.284 149.346 434.621 149.478 434.885 149.742C435.164 149.991 435.303 150.307 435.303 150.688C435.303 151.084 435.171 151.421 434.907 151.7C434.643 151.964 434.299 152.096 433.873 152.096ZM453.988 154.23C454.927 154.23 455.755 154.413 456.474 154.78C457.193 155.147 457.75 155.704 458.146 156.452C458.557 157.2 458.762 158.146 458.762 159.29V166H456.65V159.532C456.65 158.403 456.386 157.552 455.858 156.98C455.33 156.408 454.589 156.122 453.636 156.122C452.932 156.122 452.316 156.269 451.788 156.562C451.26 156.855 450.849 157.288 450.556 157.86C450.277 158.432 450.138 159.143 450.138 159.994V166H448.026V159.532C448.026 158.403 447.762 157.552 447.234 156.98C446.721 156.408 445.98 156.122 445.012 156.122C444.323 156.122 443.714 156.269 443.186 156.562C442.658 156.855 442.247 157.288 441.954 157.86C441.661 158.432 441.514 159.143 441.514 159.994V166H439.402V154.34H441.426V157.442L441.096 156.65C441.463 155.887 442.027 155.293 442.79 154.868C443.553 154.443 444.44 154.23 445.452 154.23C446.567 154.23 447.527 154.509 448.334 155.066C449.141 155.609 449.669 156.437 449.918 157.552L449.06 157.2C449.412 156.305 450.028 155.587 450.908 155.044C451.788 154.501 452.815 154.23 453.988 154.23ZM470.326 166V163.536L470.216 163.074V158.872C470.216 157.977 469.952 157.288 469.424 156.804C468.911 156.305 468.133 156.056 467.092 156.056C466.403 156.056 465.728 156.173 465.068 156.408C464.408 156.628 463.851 156.929 463.396 157.31L462.516 155.726C463.117 155.242 463.836 154.875 464.672 154.626C465.523 154.362 466.41 154.23 467.334 154.23C468.933 154.23 470.165 154.619 471.03 155.396C471.895 156.173 472.328 157.361 472.328 158.96V166H470.326ZM466.498 166.132C465.633 166.132 464.87 165.985 464.21 165.692C463.565 165.399 463.066 164.995 462.714 164.482C462.362 163.954 462.186 163.36 462.186 162.7C462.186 162.069 462.333 161.497 462.626 160.984C462.934 160.471 463.425 160.06 464.1 159.752C464.789 159.444 465.713 159.29 466.872 159.29H470.568V160.808H466.96C465.904 160.808 465.193 160.984 464.826 161.336C464.459 161.688 464.276 162.113 464.276 162.612C464.276 163.184 464.503 163.646 464.958 163.998C465.413 164.335 466.043 164.504 466.85 164.504C467.642 164.504 468.331 164.328 468.918 163.976C469.519 163.624 469.952 163.111 470.216 162.436L470.634 163.888C470.355 164.577 469.864 165.127 469.16 165.538C468.456 165.934 467.569 166.132 466.498 166.132ZM480.681 166.132C479.507 166.132 478.598 165.817 477.953 165.186C477.307 164.555 476.985 163.653 476.985 162.48V151.788H479.097V162.392C479.097 163.023 479.251 163.507 479.559 163.844C479.881 164.181 480.336 164.35 480.923 164.35C481.583 164.35 482.133 164.167 482.573 163.8L483.233 165.318C482.91 165.597 482.521 165.802 482.067 165.934C481.627 166.066 481.165 166.132 480.681 166.132ZM475.005 156.078V154.34H482.441V156.078H475.005ZM486.226 166V154.34H488.338V166H486.226ZM487.282 152.096C486.871 152.096 486.527 151.964 486.248 151.7C485.984 151.436 485.852 151.113 485.852 150.732C485.852 150.336 485.984 150.006 486.248 149.742C486.527 149.478 486.871 149.346 487.282 149.346C487.693 149.346 488.03 149.478 488.294 149.742C488.573 149.991 488.712 150.307 488.712 150.688C488.712 151.084 488.58 151.421 488.316 151.7C488.052 151.964 487.707 152.096 487.282 152.096ZM497.804 166.132C496.631 166.132 495.59 165.875 494.68 165.362C493.771 164.849 493.052 164.145 492.524 163.25C491.996 162.341 491.732 161.314 491.732 160.17C491.732 159.011 491.996 157.985 492.524 157.09C493.052 156.195 493.771 155.499 494.68 155C495.59 154.487 496.631 154.23 497.804 154.23C498.963 154.23 499.997 154.487 500.906 155C501.83 155.499 502.549 156.195 503.062 157.09C503.59 157.97 503.854 158.997 503.854 160.17C503.854 161.329 503.59 162.355 503.062 163.25C502.549 164.145 501.83 164.849 500.906 165.362C499.997 165.875 498.963 166.132 497.804 166.132ZM497.804 164.284C498.552 164.284 499.22 164.115 499.806 163.778C500.408 163.441 500.877 162.964 501.214 162.348C501.552 161.717 501.72 160.991 501.72 160.17C501.72 159.334 501.552 158.615 501.214 158.014C500.877 157.398 500.408 156.921 499.806 156.584C499.22 156.247 498.552 156.078 497.804 156.078C497.056 156.078 496.389 156.247 495.802 156.584C495.216 156.921 494.746 157.398 494.394 158.014C494.042 158.615 493.866 159.334 493.866 160.17C493.866 160.991 494.042 161.717 494.394 162.348C494.746 162.964 495.216 163.441 495.802 163.778C496.389 164.115 497.056 164.284 497.804 164.284ZM513.441 154.23C514.395 154.23 515.231 154.413 515.949 154.78C516.683 155.147 517.255 155.704 517.665 156.452C518.076 157.2 518.281 158.146 518.281 159.29V166H516.169V159.532C516.169 158.403 515.891 157.552 515.333 156.98C514.791 156.408 514.021 156.122 513.023 156.122C512.275 156.122 511.623 156.269 511.065 156.562C510.508 156.855 510.075 157.288 509.767 157.86C509.474 158.432 509.327 159.143 509.327 159.994V166H507.215V154.34H509.239V157.486L508.909 156.65C509.291 155.887 509.877 155.293 510.669 154.868C511.461 154.443 512.385 154.23 513.441 154.23ZM525.974 166.132C525.006 166.132 524.082 166 523.202 165.736C522.337 165.472 521.655 165.149 521.156 164.768L522.036 163.096C522.535 163.433 523.151 163.719 523.884 163.954C524.617 164.189 525.365 164.306 526.128 164.306C527.111 164.306 527.815 164.167 528.24 163.888C528.68 163.609 528.9 163.221 528.9 162.722C528.9 162.355 528.768 162.069 528.504 161.864C528.24 161.659 527.888 161.505 527.448 161.402C527.023 161.299 526.546 161.211 526.018 161.138C525.49 161.05 524.962 160.947 524.434 160.83C523.906 160.698 523.422 160.522 522.982 160.302C522.542 160.067 522.19 159.752 521.926 159.356C521.662 158.945 521.53 158.403 521.53 157.728C521.53 157.024 521.728 156.408 522.124 155.88C522.52 155.352 523.077 154.949 523.796 154.67C524.529 154.377 525.395 154.23 526.392 154.23C527.155 154.23 527.925 154.325 528.702 154.516C529.494 154.692 530.139 154.949 530.638 155.286L529.736 156.958C529.208 156.606 528.658 156.364 528.086 156.232C527.514 156.1 526.942 156.034 526.37 156.034C525.446 156.034 524.757 156.188 524.302 156.496C523.847 156.789 523.62 157.171 523.62 157.64C523.62 158.036 523.752 158.344 524.016 158.564C524.295 158.769 524.647 158.931 525.072 159.048C525.512 159.165 525.996 159.268 526.524 159.356C527.052 159.429 527.58 159.532 528.108 159.664C528.636 159.781 529.113 159.95 529.538 160.17C529.978 160.39 530.33 160.698 530.594 161.094C530.873 161.49 531.012 162.018 531.012 162.678C531.012 163.382 530.807 163.991 530.396 164.504C529.985 165.017 529.406 165.421 528.658 165.714C527.91 165.993 527.015 166.132 525.974 166.132ZM546.622 166.132C545.654 166.132 544.766 165.912 543.96 165.472C543.168 165.017 542.53 164.35 542.046 163.47C541.576 162.59 541.342 161.49 541.342 160.17C541.342 158.85 541.569 157.75 542.024 156.87C542.493 155.99 543.124 155.33 543.916 154.89C544.722 154.45 545.624 154.23 546.622 154.23C547.766 154.23 548.778 154.479 549.658 154.978C550.538 155.477 551.234 156.173 551.748 157.068C552.261 157.948 552.518 158.982 552.518 160.17C552.518 161.358 552.261 162.399 551.748 163.294C551.234 164.189 550.538 164.885 549.658 165.384C548.778 165.883 547.766 166.132 546.622 166.132ZM540.44 170.268V154.34H542.464V157.486L542.332 160.192L542.552 162.898V170.268H540.44ZM546.446 164.284C547.194 164.284 547.861 164.115 548.448 163.778C549.049 163.441 549.518 162.964 549.856 162.348C550.208 161.717 550.384 160.991 550.384 160.17C550.384 159.334 550.208 158.615 549.856 158.014C549.518 157.398 549.049 156.921 548.448 156.584C547.861 156.247 547.194 156.078 546.446 156.078C545.712 156.078 545.045 156.247 544.444 156.584C543.857 156.921 543.388 157.398 543.036 158.014C542.698 158.615 542.53 159.334 542.53 160.17C542.53 160.991 542.698 161.717 543.036 162.348C543.388 162.964 543.857 163.441 544.444 163.778C545.045 164.115 545.712 164.284 546.446 164.284ZM555.876 166V154.34H557.9V157.508L557.702 156.716C558.024 155.909 558.567 155.293 559.33 154.868C560.092 154.443 561.031 154.23 562.146 154.23V156.276C562.058 156.261 561.97 156.254 561.882 156.254C561.808 156.254 561.735 156.254 561.662 156.254C560.532 156.254 559.638 156.591 558.978 157.266C558.318 157.941 557.988 158.916 557.988 160.192V166H555.876ZM570.273 166.132C569.027 166.132 567.927 165.875 566.973 165.362C566.035 164.849 565.301 164.145 564.773 163.25C564.26 162.355 564.003 161.329 564.003 160.17C564.003 159.011 564.253 157.985 564.751 157.09C565.265 156.195 565.961 155.499 566.841 155C567.736 154.487 568.741 154.23 569.855 154.23C570.985 154.23 571.982 154.479 572.847 154.978C573.713 155.477 574.387 156.181 574.871 157.09C575.37 157.985 575.619 159.033 575.619 160.236C575.619 160.324 575.612 160.427 575.597 160.544C575.597 160.661 575.59 160.771 575.575 160.874H565.653V159.356H574.475L573.617 159.884C573.632 159.136 573.478 158.469 573.155 157.882C572.833 157.295 572.385 156.841 571.813 156.518C571.256 156.181 570.603 156.012 569.855 156.012C569.122 156.012 568.469 156.181 567.897 156.518C567.325 156.841 566.878 157.303 566.555 157.904C566.233 158.491 566.071 159.165 566.071 159.928V160.28C566.071 161.057 566.247 161.754 566.599 162.37C566.966 162.971 567.472 163.441 568.117 163.778C568.763 164.115 569.503 164.284 570.339 164.284C571.029 164.284 571.652 164.167 572.209 163.932C572.781 163.697 573.28 163.345 573.705 162.876L574.871 164.24C574.343 164.856 573.683 165.325 572.891 165.648C572.114 165.971 571.241 166.132 570.273 166.132ZM568.183 152.646L571.175 149.786H573.859L570.163 152.646H568.183ZM584.074 166.132C582.886 166.132 581.823 165.875 580.884 165.362C579.96 164.849 579.234 164.145 578.706 163.25C578.178 162.355 577.914 161.329 577.914 160.17C577.914 159.011 578.178 157.985 578.706 157.09C579.234 156.195 579.96 155.499 580.884 155C581.823 154.487 582.886 154.23 584.074 154.23C585.13 154.23 586.069 154.443 586.89 154.868C587.726 155.279 588.371 155.895 588.826 156.716L587.22 157.75C586.839 157.178 586.369 156.76 585.812 156.496C585.269 156.217 584.683 156.078 584.052 156.078C583.289 156.078 582.607 156.247 582.006 156.584C581.405 156.921 580.928 157.398 580.576 158.014C580.224 158.615 580.048 159.334 580.048 160.17C580.048 161.006 580.224 161.732 580.576 162.348C580.928 162.964 581.405 163.441 582.006 163.778C582.607 164.115 583.289 164.284 584.052 164.284C584.683 164.284 585.269 164.152 585.812 163.888C586.369 163.609 586.839 163.184 587.22 162.612L588.826 163.624C588.371 164.431 587.726 165.054 586.89 165.494C586.069 165.919 585.13 166.132 584.074 166.132ZM591.85 166V154.34H593.962V166H591.85ZM592.906 152.096C592.495 152.096 592.151 151.964 591.872 151.7C591.608 151.436 591.476 151.113 591.476 150.732C591.476 150.336 591.608 150.006 591.872 149.742C592.151 149.478 592.495 149.346 592.906 149.346C593.317 149.346 593.654 149.478 593.918 149.742C594.197 149.991 594.336 150.307 594.336 150.688C594.336 151.084 594.204 151.421 593.94 151.7C593.676 151.964 593.331 152.096 592.906 152.096ZM601.778 166.132C600.81 166.132 599.886 166 599.006 165.736C598.141 165.472 597.459 165.149 596.96 164.768L597.84 163.096C598.339 163.433 598.955 163.719 599.688 163.954C600.422 164.189 601.17 164.306 601.932 164.306C602.915 164.306 603.619 164.167 604.044 163.888C604.484 163.609 604.704 163.221 604.704 162.722C604.704 162.355 604.572 162.069 604.308 161.864C604.044 161.659 603.692 161.505 603.252 161.402C602.827 161.299 602.35 161.211 601.822 161.138C601.294 161.05 600.766 160.947 600.238 160.83C599.71 160.698 599.226 160.522 598.786 160.302C598.346 160.067 597.994 159.752 597.73 159.356C597.466 158.945 597.334 158.403 597.334 157.728C597.334 157.024 597.532 156.408 597.928 155.88C598.324 155.352 598.882 154.949 599.6 154.67C600.334 154.377 601.199 154.23 602.196 154.23C602.959 154.23 603.729 154.325 604.506 154.516C605.298 154.692 605.944 154.949 606.442 155.286L605.54 156.958C605.012 156.606 604.462 156.364 603.89 156.232C603.318 156.1 602.746 156.034 602.174 156.034C601.25 156.034 600.561 156.188 600.106 156.496C599.652 156.789 599.424 157.171 599.424 157.64C599.424 158.036 599.556 158.344 599.82 158.564C600.099 158.769 600.451 158.931 600.876 159.048C601.316 159.165 601.8 159.268 602.328 159.356C602.856 159.429 603.384 159.532 603.912 159.664C604.44 159.781 604.917 159.95 605.342 160.17C605.782 160.39 606.134 160.698 606.398 161.094C606.677 161.49 606.816 162.018 606.816 162.678C606.816 163.382 606.611 163.991 606.2 164.504C605.79 165.017 605.21 165.421 604.462 165.714C603.714 165.993 602.82 166.132 601.778 166.132ZM615.088 166.132C613.841 166.132 612.741 165.875 611.788 165.362C610.849 164.849 610.116 164.145 609.588 163.25C609.075 162.355 608.818 161.329 608.818 160.17C608.818 159.011 609.067 157.985 609.566 157.09C610.079 156.195 610.776 155.499 611.656 155C612.551 154.487 613.555 154.23 614.67 154.23C615.799 154.23 616.797 154.479 617.662 154.978C618.527 155.477 619.202 156.181 619.686 157.09C620.185 157.985 620.434 159.033 620.434 160.236C620.434 160.324 620.427 160.427 620.412 160.544C620.412 160.661 620.405 160.771 620.39 160.874H610.468V159.356H619.29L618.432 159.884C618.447 159.136 618.293 158.469 617.97 157.882C617.647 157.295 617.2 156.841 616.628 156.518C616.071 156.181 615.418 156.012 614.67 156.012C613.937 156.012 613.284 156.181 612.712 156.518C612.14 156.841 611.693 157.303 611.37 157.904C611.047 158.491 610.886 159.165 610.886 159.928V160.28C610.886 161.057 611.062 161.754 611.414 162.37C611.781 162.971 612.287 163.441 612.932 163.778C613.577 164.115 614.318 164.284 615.154 164.284C615.843 164.284 616.467 164.167 617.024 163.932C617.596 163.697 618.095 163.345 618.52 162.876L619.686 164.24C619.158 164.856 618.498 165.325 617.706 165.648C616.929 165.971 616.056 166.132 615.088 166.132ZM627.151 166.132C626.183 166.132 625.259 166 624.379 165.736C623.513 165.472 622.831 165.149 622.333 164.768L623.213 163.096C623.711 163.433 624.327 163.719 625.061 163.954C625.794 164.189 626.542 164.306 627.305 164.306C628.287 164.306 628.991 164.167 629.417 163.888C629.857 163.609 630.077 163.221 630.077 162.722C630.077 162.355 629.945 162.069 629.681 161.864C629.417 161.659 629.065 161.505 628.625 161.402C628.199 161.299 627.723 161.211 627.195 161.138C626.667 161.05 626.139 160.947 625.611 160.83C625.083 160.698 624.599 160.522 624.159 160.302C623.719 160.067 623.367 159.752 623.103 159.356C622.839 158.945 622.707 158.403 622.707 157.728C622.707 157.024 622.905 156.408 623.301 155.88C623.697 155.352 624.254 154.949 624.973 154.67C625.706 154.377 626.571 154.23 627.569 154.23C628.331 154.23 629.101 154.325 629.879 154.516C630.671 154.692 631.316 154.949 631.815 155.286L630.913 156.958C630.385 156.606 629.835 156.364 629.263 156.232C628.691 156.1 628.119 156.034 627.547 156.034C626.623 156.034 625.933 156.188 625.479 156.496C625.024 156.789 624.797 157.171 624.797 157.64C624.797 158.036 624.929 158.344 625.193 158.564C625.471 158.769 625.823 158.931 626.249 159.048C626.689 159.165 627.173 159.268 627.701 159.356C628.229 159.429 628.757 159.532 629.285 159.664C629.813 159.781 630.289 159.95 630.715 160.17C631.155 160.39 631.507 160.698 631.771 161.094C632.049 161.49 632.189 162.018 632.189 162.678C632.189 163.382 631.983 163.991 631.573 164.504C631.162 165.017 630.583 165.421 629.835 165.714C629.087 165.993 628.192 166.132 627.151 166.132Z" fill="url(#paint0_linear_33_29)"/>
<path fill-rule="evenodd" clip-rule="evenodd" d="M2 39V36C2 34.8954 2.89543 34 4 34H68C69.1046 34 70 34.8954 70 36V52.0342C70 53.1388 69.1046 54.0342 68 54.0342H28.0199C26.9153 54.0342 26.0199 54.9297 26.0199 56.0342V68.8287H54.6741C56.4071 68.8287 57.3199 70.8826 56.1586 72.1689L51.3407 77.5056C50.6534 78.2669 50.6534 79.4248 51.3407 80.1861L56.1586 85.5227C57.3199 86.8091 56.4071 88.863 54.6741 88.863H26.0199V101.966C26.0199 103.07 26.9153 103.966 28.0199 103.966H68C69.1046 103.966 70 104.861 70 105.966V122C70 123.105 69.1046 124 68 124H21.0199H7H4C2.89543 124 2 123.105 2 122V119V105.966V52.0342V39Z" fill="#FEFFFE"/>
<defs>
<linearGradient id="paint0_linear_33_29" x1="0" y1="140" x2="635" y2="140" gradientUnits="userSpaceOnUse">
<stop stop-color="white"/>
<stop offset="1" stop-color="#FF4000"/>
</linearGradient>
</defs>
</svg>
