<svg width="224" height="292" viewBox="0 0 224 292" fill="none" xmlns="http://www.w3.org/2000/svg">
<path fill-rule="evenodd" clip-rule="evenodd" d="M13.4663 0.0774433C5.9025 0.845593 0 7.23349 0 15V50V242V277C0 285.284 6.71573 292 15 292H56H186C194.284 292 201 285.284 201 277V242C201 233.716 194.284 227 186 227H76C73.2386 227 71 224.761 71 222V178H158.414C162.638 178 164.958 173.086 162.275 169.824L144.881 148.676C143.363 146.831 143.363 144.169 144.881 142.324L162.275 121.176C164.958 117.914 162.638 113 158.414 113H71V70C71 67.2386 73.2386 65 76 65H186C194.284 65 201 58.2843 201 50V15C201 6.71573 194.284 0 186 0H56H15C14.4822 0 13.9706 0.0262333 13.4663 0.0774433Z" fill="#4333FF"/>
<path d="M215.179 118.449C218.186 114.888 224 117.014 224 121.674V147.092V171.641C224 176.264 218.264 178.411 215.229 174.924L193.814 150.325C192.195 148.465 192.174 145.702 193.765 143.817L215.179 118.449Z" fill="#FF4000"/>
</svg>
